<svg width='100' height='100' viewBox='0 0 100 100' fill='none' xmlns='http://www.w3.org/2000/svg'>
<rect filter="blur(1px)" stroke="#C3EF3Caa" stroke-width="28" x="16" y="16" width="68" height="68" rx="16" ry="16" />

<rect stroke="#fffffff0" stroke-width="2" x="3" y="3" width="94" height="94" rx="24" ry="24" />
<rect stroke="#fffffff0" stroke-width="2" x="29" y="29" width="42" height="42" rx="6" ry="6" />
<rect filter="blur(2px)" stroke="#ffffffaa" stroke-width="7.5" x="17.5" y="17.5" width="66" height="66" rx="12" ry="12" />

  <path 
  d="M 16.06,15.13 25.44,14.96 34.83,16.29 43.44,15.68 53.57,15.07 61.9,14.99 71.4,15.15 81.21,16.09 83.44,22.38 83.61,31.58 83.44,41.96 83.87,51.06 83.26,60.29 83.29,69.94 83.04,79.32 79.18,82.65 70.3,83.86 60.63,84.07 50.6,83.55 41.29,83.56 32.39,83.43 21.67,83.13 16.13,81.65 15.87,71.14 14.78,61.67 15.54,53.4 15.54,43.15 15.28,34.87 15.69,25.39 16.01,15.93 Z" 
   stroke="black"/>

  <circle r="0.5" fill="black" fill-opacity="60%">
    <animateMotion
      dur="10s"
      repeatCount="indefinite"
      path="M 16,16 L 84,16 L 84,84 L 16,84 Z" />
  </circle>

</svg>
