<svg width='100' height='100' viewBox='0 0 100 100' fill='none' xmlns='http://www.w3.org/2000/svg'>
<rect filter="blur(1px)" stroke="#C3EF3Caa" stroke-width="28" x="16" y="16" width="68" height="68" rx="16" ry="16" />

<rect stroke="#fffffff0" stroke-width="2" x="3" y="3" width="94" height="94" rx="24" ry="24" />
<rect stroke="#fffffff0" stroke-width="2" x="29" y="29" width="42" height="42" rx="6" ry="6" />
<rect filter="blur(2px)" stroke="#ffffffaa" stroke-width="7.5" x="17.5" y="17.5" width="66" height="66" rx="12" ry="12" />

  <path 
  d="M 15,15.5 18.41,15.34 20.18,15.23 23.93,16.04 25.86,15.24 29.18,14.76 32.03,16.43 35.27,15.09 37.53,14.98 40.58,15.7 43.06,14.97 46.33,15.27 48.34,15.66 51.97,14.93 53.36,15.75 56.45,15.38 58.59,15.06 62.46,16.02 64.93,15.68 67.75,15.96 69.79,15.07 72.84,15.18 75.84,15.83 78.92,16.36 81.61,15.31 83.91,16.4 83.98,18.86 84.09,22.27 82.88,23.76 83.97,27.11 83.78,29.95 84.31,32.47 82.65,36.02 83.54,37.56 83.3,41.25 83.31,43.01 84.35,46.54 82.6,49.44 83.22,52.1 83.85,54.38 83.42,58.07 83.35,60.22 82.87,62.33 83.77,65.06 83.9,68.69 82.97,70.84 84.1,73.18 82.8,76.08 84.09,79.16 83.46,81.74 82.34,83.83 79.17,83.33 76.03,82.9 74.09,83.78 71.82,83.96 68.33,82.93 65.64,83.95 63.33,82.99 59.77,83.04 56.76,84.08 54.85,83.11 52.14,83.85 48.66,82.74 46.03,82.87 43.3,82.67 40.81,83.19 37.97,84.17 34.89,83.3 32.62,82.93 29.03,83.98 27.75,84.16 23.87,83.36 20.81,83.57 18.34,84.32 16.37,83.51 15.28,80.7 15.57,79.17 15.85,75.14 15.58,73.82 15.04,69.85 14.94,67.91 15.17,64.65 15.12,61.64 16.11,59.4 15.54,56.51 14.94,54.21 15.12,51.19 15.2,48.13 15.75,45.23 15.31,43.32 16.28,40.08 15.22,37.96 14.81,34.62 16.33,31.62 16.31,29.62 14.75,27.07 15.81,23.28 16,21.09 15.88,18.85 15.12,15.01 Z" 
   stroke="black"/>

  <circle r="2" fill="red" fill-opacity="60%">
    <animateMotion
      dur="5s"
      repeatCount="indefinite"
      path="M 15,15.5 18.41,15.34 20.18,15.23 23.93,16.04 25.86,15.24 29.18,14.76 32.03,16.43 35.27,15.09 37.53,14.98 40.58,15.7 43.06,14.97 46.33,15.27 48.34,15.66 51.97,14.93 53.36,15.75 56.45,15.38 58.59,15.06 62.46,16.02 64.93,15.68 67.75,15.96 69.79,15.07 72.84,15.18 75.84,15.83 78.92,16.36 81.61,15.31 83.91,16.4 83.98,18.86 84.09,22.27 82.88,23.76 83.97,27.11 83.78,29.95 84.31,32.47 82.65,36.02 83.54,37.56 83.3,41.25 83.31,43.01 84.35,46.54 82.6,49.44 83.22,52.1 83.85,54.38 83.42,58.07 83.35,60.22 82.87,62.33 83.77,65.06 83.9,68.69 82.97,70.84 84.1,73.18 82.8,76.08 84.09,79.16 83.46,81.74 82.34,83.83 79.17,83.33 76.03,82.9 74.09,83.78 71.82,83.96 68.33,82.93 65.64,83.95 63.33,82.99 59.77,83.04 56.76,84.08 54.85,83.11 52.14,83.85 48.66,82.74 46.03,82.87 43.3,82.67 40.81,83.19 37.97,84.17 34.89,83.3 32.62,82.93 29.03,83.98 27.75,84.16 23.87,83.36 20.81,83.57 18.34,84.32 16.37,83.51 15.28,80.7 15.57,79.17 15.85,75.14 15.58,73.82 15.04,69.85 14.94,67.91 15.17,64.65 15.12,61.64 16.11,59.4 15.54,56.51 14.94,54.21 15.12,51.19 15.2,48.13 15.75,45.23 15.31,43.32 16.28,40.08 15.22,37.96 14.81,34.62 16.33,31.62 16.31,29.62 14.75,27.07 15.81,23.28 16,21.09 15.88,18.85 15.12,15.01 Z" />
  </circle>
</svg>
